<svg xmlns="http://www.w3.org/2000/svg" xmlns:xlink="http://www.w3.org/1999/xlink" viewBox="0 0 528.91 260.09"><defs><style>.cls-1{fill:none;}.cls-2{clip-path:url(#clip-path);}.cls-3{fill:url(#未命名的渐变_4);}.cls-4{clip-path:url(#clip-path-2);}.cls-5{fill:url(#未命名的渐变_4-2);}.cls-6{clip-path:url(#clip-path-3);}.cls-7{fill:url(#未命名的渐变_4-3);}.cls-8{clip-path:url(#clip-path-4);}.cls-9{fill:url(#未命名的渐变_4-4);}</style><clipPath id="clip-path" transform="translate(6.95 0)"><path class="cls-1" d="M408.27,67.15A11.73,11.73,0,1,0,420,55.43a11.73,11.73,0,0,0-11.73,11.72"/></clipPath><linearGradient id="未命名的渐变_4" x1="-648.09" y1="1535.05" x2="-642.8" y2="1535.05" gradientTransform="matrix(4.44, 0, 0, -4.44, 3291.66, 6880.27)" gradientUnits="userSpaceOnUse"><stop offset="0" stop-color="#43cbff"/><stop offset="0.1" stop-color="#47c3fd"/><stop offset="0.27" stop-color="#51abf7"/><stop offset="0.47" stop-color="#6186ed"/><stop offset="0.71" stop-color="#7751df"/><stop offset="0.97" stop-color="#940fce"/><stop offset="1" stop-color="#9708cc"/></linearGradient><clipPath id="clip-path-2" transform="translate(6.95 0)"><path class="cls-1" d="M62.91,208.92A21.32,21.32,0,1,0,84.23,187.6a21.33,21.33,0,0,0-21.32,21.32"/></clipPath><linearGradient id="未命名的渐变_4-2" x1="-713.75" y1="1434.37" x2="-708.46" y2="1434.37" gradientTransform="matrix(8.07, 0, 0, -8.07, 5829.61, 11783.94)" xlink:href="#未命名的渐变_4"/><clipPath id="clip-path-3" transform="translate(6.95 0)"><path class="cls-1" d="M116.2,229.18a9.6,9.6,0,1,0,9.6-9.6,9.59,9.59,0,0,0-9.6,9.6"/></clipPath><linearGradient id="未命名的渐变_4-3" x1="-698" y1="1541.57" x2="-692.72" y2="1541.57" gradientTransform="matrix(3.63, 0, 0, -3.63, 2657.86, 5827.19)" xlink:href="#未命名的渐变_4"/><clipPath id="clip-path-4" transform="translate(6.95 0)"><path class="cls-1" d="M367.05,202.48a129.44,129.44,0,0,0,22-72.44A132,132,0,0,0,388,113.55c45.17,21.66,72.05,45.2,67.68,63.34-4.09,17-34.68,25.7-79.61,25.7-2.95,0-6,0-9-.11M59.71,81.52C64.17,63,100.26,54.28,152.13,56A129.33,129.33,0,0,0,129,130a130.89,130.89,0,0,0,1,16.06c-46.75-22-74.76-46.09-70.3-64.58M163.9,41.43C74.37,30.27,8.16,39.2.69,67.68c-7.64,29.18,48.55,70.74,135.65,105.45.37,1.07.73,2.16,1.15,3.22a130,130,0,0,0,189.05,64.83c.65-.29-78.72-15.31-97.74-37.36,3.34.91,6.67,1.83,10,2.71a885.69,885.69,0,0,0,104.91,21.05l1.07.15c92.79,12.41,162,3.75,169.67-25.41,7.46-28.45-45.73-68.63-129.06-102.79A130,130,0,0,0,163.9,41.43"/></clipPath><linearGradient id="未命名的渐变_4-4" x1="-717.16" y1="1351.19" x2="-711.88" y2="1351.19" gradientTransform="matrix(97.51, 0, 0, -97.51, 69936.42, 131883.56)" xlink:href="#未命名的渐变_4"/></defs><g id="Layer_2" data-name="Layer 2"><g id="图层_1" data-name="图层 1"><g class="cls-2"><rect class="cls-3" x="415.22" y="55.43" width="23.45" height="23.45"/></g><g class="cls-4"><rect class="cls-5" x="69.86" y="187.6" width="42.63" height="42.64"/></g><g class="cls-6"><rect class="cls-7" x="123.15" y="219.58" width="19.19" height="19.18"/></g><g class="cls-8"><rect class="cls-9" width="528.91" height="260.09"/></g></g></g></svg>