<?xml version="1.0" encoding="UTF-8"?>
<!DOCTYPE svg PUBLIC "-//W3C//DTD SVG 1.1//EN" "http://www.w3.org/Graphics/SVG/1.1/DTD/svg11.dtd">
<svg xmlns="http://www.w3.org/2000/svg" version="1.1" width="1078px" height="544px" style="shape-rendering:geometricPrecision; text-rendering:geometricPrecision; image-rendering:optimizeQuality; fill-rule:evenodd; clip-rule:evenodd" xmlns:xlink="http://www.w3.org/1999/xlink">
<g><path style="opacity:0.997" fill="#6281eb" d="M 525.5,-0.5 C 531.5,-0.5 537.5,-0.5 543.5,-0.5C 543.5,147.167 543.5,294.833 543.5,442.5C 536.211,441.593 529.211,439.927 522.5,437.5C 522.5,291.833 522.5,146.167 522.5,0.5C 523.791,0.737305 524.791,0.403972 525.5,-0.5 Z"/></g>
<g><path style="opacity:0.998" fill="#647dea" d="M 543.5,-0.5 C 548.167,-0.5 552.833,-0.5 557.5,-0.5C 558.209,0.403972 559.209,0.737305 560.5,0.5C 560.5,149.167 560.5,297.833 560.5,446.5C 554.545,445.927 548.878,444.593 543.5,442.5C 543.5,294.833 543.5,147.167 543.5,-0.5 Z"/></g>
<g><path style="opacity:0.998" fill="#6085ec" d="M 522.5,0.5 C 522.5,146.167 522.5,291.833 522.5,437.5C 513.759,435.815 505.092,433.815 496.5,431.5C 496.5,288.833 496.5,146.167 496.5,3.5C 505.03,1.6841 513.697,0.684104 522.5,0.5 Z"/></g>
<g><path style="opacity:0.998" fill="#6679e9" d="M 560.5,0.5 C 570.229,0.92459 579.896,1.92459 589.5,3.5C 589.5,153.5 589.5,303.5 589.5,453.5C 579.634,451.531 569.967,449.198 560.5,446.5C 560.5,297.833 560.5,149.167 560.5,0.5 Z"/></g>
<g><path style="opacity:0.998" fill="#5f89ee" d="M 496.5,3.5 C 496.5,146.167 496.5,288.833 496.5,431.5C 493.933,430.525 491.267,429.858 488.5,429.5C 488.5,287.833 488.5,146.167 488.5,4.5C 491.127,3.90843 493.794,3.5751 496.5,3.5 Z"/></g>
<g><path style="opacity:0.998" fill="#6873e8" d="M 589.5,3.5 C 597.964,5.03288 606.297,7.03288 614.5,9.5C 614.5,159.167 614.5,308.833 614.5,458.5C 606.14,456.961 597.806,455.295 589.5,453.5C 589.5,303.5 589.5,153.5 589.5,3.5 Z"/></g>
<g><path style="opacity:0.997" fill="#5e8bee" d="M 488.5,4.5 C 488.5,146.167 488.5,287.833 488.5,429.5C 486.293,428.261 483.959,427.761 481.5,428C 483.703,430.372 486.037,432.539 488.5,434.5C 488.5,469.167 488.5,503.833 488.5,538.5C 481.367,537.3 474.367,535.633 467.5,533.5C 467.5,358.833 467.5,184.167 467.5,9.5C 474.464,7.67577 481.464,6.00911 488.5,4.5 Z"/></g>
<g><path style="opacity:0.998" fill="#5d8eef" d="M 467.5,9.5 C 467.5,184.167 467.5,358.833 467.5,533.5C 464.215,533.072 461.215,532.072 458.5,530.5C 458.5,357.833 458.5,185.167 458.5,12.5C 461.452,11.3456 464.452,10.3456 467.5,9.5 Z"/></g>
<g><path style="opacity:0.998" fill="#6a71e7" d="M 614.5,9.5 C 616.117,10.038 617.784,10.3713 619.5,10.5C 619.5,160.167 619.5,309.833 619.5,459.5C 617.784,459.371 616.117,459.038 614.5,458.5C 614.5,308.833 614.5,159.167 614.5,9.5 Z"/></g>
<g><path style="opacity:0.998" fill="#6a70e7" d="M 619.5,10.5 C 620.995,10.9887 622.329,11.6554 623.5,12.5C 623.5,161.833 623.5,311.167 623.5,460.5C 622.167,460.167 620.833,459.833 619.5,459.5C 619.5,309.833 619.5,160.167 619.5,10.5 Z"/></g>
<g><path style="opacity:0.998" fill="#5b92f0" d="M 458.5,12.5 C 458.5,185.167 458.5,357.833 458.5,530.5C 446.882,527.521 435.882,523.187 425.5,517.5C 425.5,353.5 425.5,189.5 425.5,25.5C 436.099,20.1883 447.099,15.855 458.5,12.5 Z"/></g>
<g><path style="opacity:0.998" fill="#6b6de6" d="M 623.5,12.5 C 632.15,14.6604 640.484,17.6604 648.5,21.5C 648.5,169.167 648.5,316.833 648.5,464.5C 640.125,463.425 631.792,462.092 623.5,460.5C 623.5,311.167 623.5,161.833 623.5,12.5 Z"/></g>
<g><path style="opacity:0.998" fill="#6e66e4" d="M 648.5,21.5 C 660.76,25.9607 672.093,31.9607 682.5,39.5C 682.5,183.167 682.5,326.833 682.5,470.5C 670.929,469.128 659.595,467.128 648.5,464.5C 648.5,316.833 648.5,169.167 648.5,21.5 Z"/></g>
<g><path style="opacity:0.998" fill="#5898f1" d="M 425.5,25.5 C 425.5,189.5 425.5,353.5 425.5,517.5C 411.844,511.679 399.177,504.345 387.5,495.5C 387.5,346.167 387.5,196.833 387.5,47.5C 399.389,38.972 412.055,31.6386 425.5,25.5 Z"/></g>
<g><path style="opacity:0.998" fill="#7062e4" d="M 682.5,39.5 C 685.704,40.3833 688.371,42.0499 690.5,44.5C 690.5,186.833 690.5,329.167 690.5,471.5C 687.763,471.599 685.096,471.265 682.5,470.5C 682.5,326.833 682.5,183.167 682.5,39.5 Z"/></g>
<g><path style="opacity:0.997" fill="#715fe3" d="M 690.5,44.5 C 696.727,47.7297 702.393,51.7297 707.5,56.5C 707.5,195.833 707.5,335.167 707.5,474.5C 701.66,473.765 695.993,472.765 690.5,471.5C 690.5,329.167 690.5,186.833 690.5,44.5 Z"/></g>
<g><path style="opacity:0.997" fill="#579cf3" d="M 387.5,47.5 C 387.5,196.833 387.5,346.167 387.5,495.5C 385.566,494.89 383.899,493.89 382.5,492.5C 382.5,345.167 382.5,197.833 382.5,50.5C 384.001,49.2485 385.668,48.2485 387.5,47.5 Z"/></g>
<g><path style="opacity:0.997" fill="#569ef3" d="M 382.5,50.5 C 382.5,197.833 382.5,345.167 382.5,492.5C 376.549,488.55 370.882,484.217 365.5,479.5C 365.5,341.167 365.5,202.833 365.5,64.5C 370.943,59.605 376.61,54.9383 382.5,50.5 Z"/></g>
<g><path style="opacity:0.998" fill="#735ae1" d="M 707.5,56.5 C 718.719,64.0477 728.719,73.0477 737.5,83.5C 737.5,215.167 737.5,346.833 737.5,478.5C 727.5,477.167 717.5,475.833 707.5,474.5C 707.5,335.167 707.5,195.833 707.5,56.5 Z"/></g>
<g><path style="opacity:0.996" fill="#55a1f4" d="M 365.5,64.5 C 365.5,202.833 365.5,341.167 365.5,479.5C 357.868,473.536 350.868,466.869 344.5,459.5C 344.5,334.5 344.5,209.5 344.5,84.5C 350.868,77.131 357.868,70.4643 365.5,64.5 Z"/></g>
<g><path style="opacity:0.983" fill="#48befb" d="M 171.5,76.5 C 171.5,95.1667 171.5,113.833 171.5,132.5C 155.417,137.283 141.917,145.949 131,158.5C 123.76,169.992 122.76,181.992 128,194.5C 131.476,202.957 136.142,210.624 142,217.5C 151.426,227.431 161.26,236.764 171.5,245.5C 171.5,267.167 171.5,288.833 171.5,310.5C 154.179,302.177 137.512,292.844 121.5,282.5C 121.5,215.167 121.5,147.833 121.5,80.5C 138.132,78.7251 154.799,77.3917 171.5,76.5 Z"/></g>
<g><path style="opacity:0.982" fill="#4abafb" d="M 171.5,76.5 C 177.167,76.5 182.833,76.5 188.5,76.5C 188.5,93.5 188.5,110.5 188.5,127.5C 182.758,128.97 177.092,130.637 171.5,132.5C 171.5,113.833 171.5,95.1667 171.5,76.5 Z"/></g>
<g><path style="opacity:0.985" fill="#4bb7fa" d="M 188.5,76.5 C 197.167,76.5 205.833,76.5 214.5,76.5C 214.5,91.8333 214.5,107.167 214.5,122.5C 205.726,123.655 197.06,125.321 188.5,127.5C 188.5,110.5 188.5,93.5 188.5,76.5 Z"/></g>
<g><path style="opacity:0.98" fill="#4cb6f9" d="M 214.5,76.5 C 215.833,76.5 217.167,76.5 218.5,76.5C 218.5,91.5 218.5,106.5 218.5,121.5C 217.167,121.833 215.833,122.167 214.5,122.5C 214.5,107.167 214.5,91.8333 214.5,76.5 Z"/></g>
<g><path style="opacity:0.981" fill="#4db2f8" d="M 218.5,76.5 C 235.169,77.1062 251.836,77.7729 268.5,78.5C 268.5,91.5 268.5,104.5 268.5,117.5C 251.776,118.172 235.11,119.505 218.5,121.5C 218.5,106.5 218.5,91.5 218.5,76.5 Z"/></g>
<g><path style="opacity:0.972" fill="#50acf6" d="M 268.5,78.5 C 279.812,79.6193 291.146,80.6193 302.5,81.5C 302.5,93.5 302.5,105.5 302.5,117.5C 291.167,117.5 279.833,117.5 268.5,117.5C 268.5,104.5 268.5,91.5 268.5,78.5 Z"/></g>
<g><path style="opacity:0.994" fill="#45c4fd" d="M 121.5,80.5 C 121.5,147.833 121.5,215.167 121.5,282.5C 98.7871,269.778 77.4538,255.111 57.5,238.5C 57.5,190.5 57.5,142.5 57.5,94.5C 78.2706,87.412 99.6039,82.7453 121.5,80.5 Z"/></g>
<g><path style="opacity:0.966" fill="#52a9f6" d="M 302.5,81.5 C 304.099,81.2322 305.432,81.5655 306.5,82.5C 306.5,94.1667 306.5,105.833 306.5,117.5C 305.167,117.5 303.833,117.5 302.5,117.5C 302.5,105.5 302.5,93.5 302.5,81.5 Z"/></g>
<g><path style="opacity:0.995" fill="#53a5f5" d="M 306.5,82.5 C 317.364,83.0959 328.197,84.0959 339,85.5C 340.924,85.4189 342.757,85.0856 344.5,84.5C 344.5,209.5 344.5,334.5 344.5,459.5C 329.529,444.199 316.863,427.199 306.5,408.5C 306.5,317.167 306.5,225.833 306.5,134.5C 309.411,128.918 312.744,123.585 316.5,118.5C 313.232,117.513 309.898,117.18 306.5,117.5C 306.5,105.833 306.5,94.1667 306.5,82.5 Z"/></g>
<g><path style="opacity:0.998" fill="#7557e1" d="M 737.5,83.5 C 739.167,84.5 740.5,85.8333 741.5,87.5C 741.5,217.833 741.5,348.167 741.5,478.5C 740.167,478.5 738.833,478.5 737.5,478.5C 737.5,346.833 737.5,215.167 737.5,83.5 Z"/></g>
<g><path style="opacity:0.997" fill="#7554e0" d="M 741.5,87.5 C 747.887,93.5541 753.554,100.221 758.5,107.5C 758.5,231.833 758.5,356.167 758.5,480.5C 752.723,480.403 747.057,479.736 741.5,478.5C 741.5,348.167 741.5,217.833 741.5,87.5 Z"/></g>
<g><path style="opacity:0.983" fill="#43c9fe" d="M 57.5,94.5 C 57.5,142.5 57.5,190.5 57.5,238.5C 35.4777,221.646 17.9777,200.979 5,176.5C 2.35439,169.579 0.521054,162.579 -0.5,155.5C -0.5,153.5 -0.5,151.5 -0.5,149.5C 1.3067,135.065 7.97336,123.232 19.5,114C 30.9053,105.13 43.572,98.6302 57.5,94.5 Z"/></g>
<g><path style="opacity:0.996" fill="#7752df" d="M 758.5,107.5 C 761.66,111.148 764.327,115.148 766.5,119.5C 766.5,240.167 766.5,360.833 766.5,481.5C 763.763,481.599 761.096,481.265 758.5,480.5C 758.5,356.167 758.5,231.833 758.5,107.5 Z"/></g>
<g><path style="opacity:0.978" fill="#5b92f0" d="M 872.5,115.5 C 873.167,115.5 873.833,115.5 874.5,115.5C 874.5,132.167 874.5,148.833 874.5,165.5C 873.833,165.167 873.167,164.833 872.5,164.5C 872.5,148.167 872.5,131.833 872.5,115.5 Z"/></g>
<g><path style="opacity:0.976" fill="#5e8aee" d="M 874.5,115.5 C 875.167,115.5 875.833,115.5 876.5,115.5C 876.5,132.167 876.5,148.833 876.5,165.5C 875.833,165.5 875.167,165.5 874.5,165.5C 874.5,148.833 874.5,132.167 874.5,115.5 Z"/></g>
<g><path style="opacity:0.976" fill="#6381eb" d="M 876.5,115.5 C 877.5,115.5 878.5,115.5 879.5,115.5C 879.5,132.167 879.5,148.833 879.5,165.5C 878.5,165.5 877.5,165.5 876.5,165.5C 876.5,148.833 876.5,132.167 876.5,115.5 Z"/></g>
<g><path style="opacity:0.97" fill="#6775e8" d="M 879.5,115.5 C 880.167,115.5 880.833,115.5 881.5,115.5C 881.5,132.167 881.5,148.833 881.5,165.5C 880.833,165.5 880.167,165.5 879.5,165.5C 879.5,148.833 879.5,132.167 879.5,115.5 Z"/></g>
<g><path style="opacity:0.981" fill="#6b6ce6" d="M 881.5,115.5 C 882.492,115.328 883.158,115.662 883.5,116.5C 883.5,132.5 883.5,148.5 883.5,164.5C 882.833,164.833 882.167,165.167 881.5,165.5C 881.5,148.833 881.5,132.167 881.5,115.5 Z"/></g>
<g><path style="opacity:0.984" fill="#53a5f5" d="M 869.5,116.5 C 869.5,132.167 869.5,147.833 869.5,163.5C 868.833,163.5 868.167,163.5 867.5,163.5C 867.5,148.167 867.5,132.833 867.5,117.5C 868.167,117.167 868.833,116.833 869.5,116.5 Z"/></g>
<g><path style="opacity:0.988" fill="#569cf2" d="M 872.5,115.5 C 872.5,131.833 872.5,148.167 872.5,164.5C 871.209,164.737 870.209,164.404 869.5,163.5C 869.5,147.833 869.5,132.167 869.5,116.5C 870.609,116.443 871.609,116.11 872.5,115.5 Z"/></g>
<g><path style="opacity:0.981" fill="#6f63e4" d="M 883.5,116.5 C 884.167,116.5 884.833,116.5 885.5,116.5C 885.5,132.5 885.5,148.5 885.5,164.5C 884.833,164.5 884.167,164.5 883.5,164.5C 883.5,148.5 883.5,132.5 883.5,116.5 Z"/></g>
<g><path style="opacity:0.969" fill="#735ae1" d="M 885.5,116.5 C 886.492,116.328 887.158,116.662 887.5,117.5C 887.5,132.833 887.5,148.167 887.5,163.5C 886.833,163.833 886.167,164.167 885.5,164.5C 885.5,148.5 885.5,132.5 885.5,116.5 Z"/></g>
<g><path style="opacity:0.977" fill="#50acf7" d="M 867.5,117.5 C 867.5,132.833 867.5,148.167 867.5,163.5C 866.833,163.167 866.167,162.833 865.5,162.5C 865.5,147.833 865.5,133.167 865.5,118.5C 866.167,118.167 866.833,117.833 867.5,117.5 Z"/></g>
<g><path style="opacity:0.975" fill="#7750df" d="M 887.5,117.5 C 888.492,117.328 889.158,117.662 889.5,118.5C 889.5,133.167 889.5,147.833 889.5,162.5C 888.833,162.833 888.167,163.167 887.5,163.5C 887.5,148.167 887.5,132.833 887.5,117.5 Z"/></g>
<g><path style="opacity:0.969" fill="#4db2f8" d="M 865.5,118.5 C 865.5,133.167 865.5,147.833 865.5,162.5C 864.5,162.167 863.833,161.5 863.5,160.5C 863.5,146.833 863.5,133.167 863.5,119.5C 864.167,119.167 864.833,118.833 865.5,118.5 Z"/></g>
<g><path style="opacity:0.965" fill="#7c46dc" d="M 889.5,118.5 C 890.492,118.328 891.158,118.662 891.5,119.5C 891.5,133.5 891.5,147.5 891.5,161.5C 890.833,161.833 890.167,162.167 889.5,162.5C 889.5,147.833 889.5,133.167 889.5,118.5 Z"/></g>
<g><path style="opacity:0.99" fill="#784ede" d="M 766.5,119.5 C 779.619,137.067 789.619,156.4 796.5,177.5C 796.5,240.167 796.5,302.833 796.5,365.5C 789.694,385.613 780.36,404.446 768.5,422C 777.827,422.5 787.161,422.666 796.5,422.5C 796.5,443.167 796.5,463.833 796.5,484.5C 786.481,483.62 776.481,482.62 766.5,481.5C 766.5,360.833 766.5,240.167 766.5,119.5 Z"/></g>
<g><path style="opacity:0.952" fill="#4ab8fa" d="M 863.5,119.5 C 863.5,133.167 863.5,146.833 863.5,160.5C 862.508,160.672 861.842,160.338 861.5,159.5C 861.5,146.833 861.5,134.167 861.5,121.5C 861.833,120.5 862.5,119.833 863.5,119.5 Z"/></g>
<g><path style="opacity:0.966" fill="#803cd9" d="M 891.5,119.5 C 892.5,119.833 893.167,120.5 893.5,121.5C 893.5,134.167 893.5,146.833 893.5,159.5C 893.167,160.5 892.5,161.167 891.5,161.5C 891.5,147.5 891.5,133.5 891.5,119.5 Z"/></g>
<g><path style="opacity:0.959" fill="#48bdfb" d="M 861.5,121.5 C 861.5,134.167 861.5,146.833 861.5,159.5C 860.5,159.167 859.833,158.5 859.5,157.5C 859.5,146.167 859.5,134.833 859.5,123.5C 859.833,122.5 860.5,121.833 861.5,121.5 Z"/></g>
<g><path style="opacity:0.972" fill="#8530d6" d="M 893.5,121.5 C 894.833,122.167 895.833,123.167 896.5,124.5C 896.5,135.167 896.5,145.833 896.5,156.5C 895.833,157.833 894.833,158.833 893.5,159.5C 893.5,146.833 893.5,134.167 893.5,121.5 Z"/></g>
<g><path style="opacity:0.936" fill="#46c3fd" d="M 859.5,123.5 C 859.5,134.833 859.5,146.167 859.5,157.5C 858.026,156.564 857.026,155.23 856.5,153.5C 856.5,144.833 856.5,136.167 856.5,127.5C 856.738,125.596 857.738,124.262 859.5,123.5 Z"/></g>
<g><path style="opacity:0.929" fill="#8b22d3" d="M 896.5,124.5 C 897.5,124.833 898.167,125.5 898.5,126.5C 898.5,135.5 898.5,144.5 898.5,153.5C 898.573,155.027 897.906,156.027 896.5,156.5C 896.5,145.833 896.5,135.167 896.5,124.5 Z"/></g>
<g><path style="opacity:0.915" fill="#8e1ad0" d="M 898.5,126.5 C 899.674,127.514 900.34,128.847 900.5,130.5C 900.5,136.833 900.5,143.167 900.5,149.5C 900.34,151.153 899.674,152.486 898.5,153.5C 898.5,144.5 898.5,135.5 898.5,126.5 Z"/></g>
<g><path style="opacity:0.788" fill="#43c9fe" d="M 856.5,127.5 C 856.5,136.167 856.5,144.833 856.5,153.5C 851.235,144.805 851.235,136.138 856.5,127.5 Z"/></g>
<g><path style="opacity:0.836" fill="#930fcd" d="M 900.5,130.5 C 901.935,133.55 902.602,136.883 902.5,140.5C 902.657,143.814 901.991,146.814 900.5,149.5C 900.5,143.167 900.5,136.833 900.5,130.5 Z"/></g>
<g><path style="opacity:0.992" fill="#52a9f6" d="M 306.5,134.5 C 306.5,225.833 306.5,317.167 306.5,408.5C 304.412,406.664 303.079,404.331 302.5,401.5C 302.5,315.167 302.5,228.833 302.5,142.5C 303.326,139.515 304.659,136.849 306.5,134.5 Z"/></g>
<g><path style="opacity:0.984" fill="#50abf6" d="M 302.5,142.5 C 302.5,228.833 302.5,315.167 302.5,401.5C 295.361,389.11 289.361,376.11 284.5,362.5C 279.149,360.157 273.816,357.824 268.5,355.5C 268.5,338.167 268.5,320.833 268.5,303.5C 269.496,303.414 270.329,303.748 271,304.5C 265.312,252.652 273.312,202.985 295,155.5C 297.022,150.777 299.522,146.443 302.5,142.5 Z"/></g>
<g><path style="opacity:0.968" fill="#7b48dc" d="M 796.5,177.5 C 800.403,187.209 803.736,197.209 806.5,207.5C 810.28,208.979 813.947,210.646 817.5,212.5C 817.5,221.833 817.5,231.167 817.5,240.5C 815.559,240.131 813.725,239.464 812,238.5C 815.432,271.467 813.432,304.134 806,336.5C 803.583,346.536 800.416,356.203 796.5,365.5C 796.5,302.833 796.5,240.167 796.5,177.5 Z"/></g>
<g><path style="opacity:0.967" fill="#7d45dc" d="M 817.5,212.5 C 819.153,212.66 820.486,213.326 821.5,214.5C 821.5,223.833 821.5,233.167 821.5,242.5C 819.847,242.34 818.514,241.674 817.5,240.5C 817.5,231.167 817.5,221.833 817.5,212.5 Z"/></g>
<g><path style="opacity:0.965" fill="#7e42db" d="M 821.5,214.5 C 830.391,217.612 839.058,221.278 847.5,225.5C 847.5,235.833 847.5,246.167 847.5,256.5C 838.507,252.338 829.84,247.672 821.5,242.5C 821.5,233.167 821.5,223.833 821.5,214.5 Z"/></g>
<g><path style="opacity:0.96" fill="#7e3fda" d="M 847.5,225.5 C 849.153,225.66 850.486,226.326 851.5,227.5C 851.5,237.833 851.5,248.167 851.5,258.5C 849.847,258.34 848.514,257.674 847.5,256.5C 847.5,246.167 847.5,235.833 847.5,225.5 Z"/></g>
<g><path style="opacity:0.966" fill="#813bd9" d="M 851.5,227.5 C 859.955,230.894 868.288,234.561 876.5,238.5C 876.5,250.167 876.5,261.833 876.5,273.5C 867.993,268.748 859.66,263.748 851.5,258.5C 851.5,248.167 851.5,237.833 851.5,227.5 Z"/></g>
<g><path style="opacity:0.967" fill="#8236d8" d="M 876.5,238.5 C 881.027,240.595 885.361,242.928 889.5,245.5C 889.5,257.833 889.5,270.167 889.5,282.5C 884.955,279.734 880.622,276.734 876.5,273.5C 876.5,261.833 876.5,250.167 876.5,238.5 Z"/></g>
<g><path style="opacity:0.983" fill="#4abafb" d="M 171.5,245.5 C 177.167,249.5 182.833,253.5 188.5,257.5C 188.5,278.167 188.5,298.833 188.5,319.5C 182.64,316.738 176.974,313.738 171.5,310.5C 171.5,288.833 171.5,267.167 171.5,245.5 Z"/></g>
<g><path style="opacity:0.968" fill="#8433d7" d="M 889.5,245.5 C 895.292,247.896 900.959,250.563 906.5,253.5C 906.5,267.167 906.5,280.833 906.5,294.5C 900.65,290.743 894.983,286.743 889.5,282.5C 889.5,270.167 889.5,257.833 889.5,245.5 Z"/></g>
<g><path style="opacity:0.973" fill="#862ed5" d="M 906.5,253.5 C 915.03,257.929 923.363,262.595 931.5,267.5C 931.5,284.167 931.5,300.833 931.5,317.5C 923.441,309.437 915.107,301.77 906.5,294.5C 906.5,280.833 906.5,267.167 906.5,253.5 Z"/></g>
<g><path style="opacity:0.981" fill="#4bb7fa" d="M 188.5,257.5 C 197.189,263.2 205.856,268.867 214.5,274.5C 214.5,293.5 214.5,312.5 214.5,331.5C 205.589,328.045 196.923,324.045 188.5,319.5C 188.5,298.833 188.5,278.167 188.5,257.5 Z"/></g>
<g><path style="opacity:0.973" fill="#8829d5" d="M 931.5,267.5 C 935.966,269.566 940.299,271.9 944.5,274.5C 944.5,294.5 944.5,314.5 944.5,334.5C 939.936,329.052 935.602,323.385 931.5,317.5C 931.5,300.833 931.5,284.167 931.5,267.5 Z"/></g>
<g><path style="opacity:0.981" fill="#4cb6f9" d="M 214.5,274.5 C 215.833,275.167 217.167,275.833 218.5,276.5C 218.5,295.5 218.5,314.5 218.5,333.5C 216.847,333.34 215.514,332.674 214.5,331.5C 214.5,312.5 214.5,293.5 214.5,274.5 Z"/></g>
<g><path style="opacity:0.97" fill="#8828d4" d="M 944.5,274.5 C 946.23,275.026 947.564,276.026 948.5,277.5C 948.5,299.167 948.5,320.833 948.5,342.5C 946.659,340.151 945.326,337.485 944.5,334.5C 944.5,314.5 944.5,294.5 944.5,274.5 Z"/></g>
<g><path style="opacity:0.981" fill="#4db2f8" d="M 218.5,276.5 C 234.883,286.025 251.549,295.025 268.5,303.5C 268.5,320.833 268.5,338.167 268.5,355.5C 251.535,348.68 234.868,341.347 218.5,333.5C 218.5,314.5 218.5,295.5 218.5,276.5 Z"/></g>
<g><path style="opacity:0.984" fill="#8a26d4" d="M 948.5,277.5 C 951.45,278.308 954.117,279.642 956.5,281.5C 956.5,348.833 956.5,416.167 956.5,483.5C 953.794,483.575 951.127,483.908 948.5,484.5C 948.5,449.167 948.5,413.833 948.5,378.5C 953.786,366.527 953.786,354.527 948.5,342.5C 948.5,320.833 948.5,299.167 948.5,277.5 Z"/></g>
<g><path style="opacity:0.995" fill="#8b22d2" d="M 956.5,281.5 C 965.545,286.683 974.212,292.349 982.5,298.5C 982.5,358.833 982.5,419.167 982.5,479.5C 973.848,480.927 965.181,482.26 956.5,483.5C 956.5,416.167 956.5,348.833 956.5,281.5 Z"/></g>
<g><path style="opacity:0.994" fill="#8e1cd1" d="M 982.5,298.5 C 991.415,303.757 999.748,309.757 1007.5,316.5C 1007.5,368.833 1007.5,421.167 1007.5,473.5C 999.231,475.754 990.898,477.754 982.5,479.5C 982.5,419.167 982.5,358.833 982.5,298.5 Z"/></g>
<g><path style="opacity:0.993" fill="#8f19d0" d="M 1007.5,316.5 C 1009.23,317.026 1010.56,318.026 1011.5,319.5C 1011.5,370.5 1011.5,421.5 1011.5,472.5C 1010.17,472.833 1008.83,473.167 1007.5,473.5C 1007.5,421.167 1007.5,368.833 1007.5,316.5 Z"/></g>
<g><path style="opacity:0.992" fill="#9116cf" d="M 1011.5,319.5 C 1019.11,324.781 1026.11,330.781 1032.5,337.5C 1032.5,379.833 1032.5,422.167 1032.5,464.5C 1025.66,467.559 1018.66,470.226 1011.5,472.5C 1011.5,421.5 1011.5,370.5 1011.5,319.5 Z"/></g>
<g><path style="opacity:0.99" fill="#9112cf" d="M 1032.5,337.5 C 1033.87,338.512 1035.2,339.512 1036.5,340.5C 1036.5,381.167 1036.5,421.833 1036.5,462.5C 1035.49,463.674 1034.15,464.34 1032.5,464.5C 1032.5,422.167 1032.5,379.833 1032.5,337.5 Z"/></g>
<g><path style="opacity:0.986" fill="#930fcd" d="M 1036.5,340.5 C 1044.55,348.215 1051.88,356.548 1058.5,365.5C 1058.5,393.167 1058.5,420.833 1058.5,448.5C 1051.97,454.343 1044.64,459.01 1036.5,462.5C 1036.5,421.833 1036.5,381.167 1036.5,340.5 Z"/></g>
<g><path style="opacity:0.979" fill="#940ccd" d="M 1058.5,365.5 C 1060.33,367.147 1061.66,369.147 1062.5,371.5C 1062.5,395.833 1062.5,420.167 1062.5,444.5C 1061.5,446.167 1060.17,447.5 1058.5,448.5C 1058.5,420.833 1058.5,393.167 1058.5,365.5 Z"/></g>
<g><path style="opacity:0.95" fill="#960acc" d="M 1062.5,371.5 C 1071.04,382.793 1076.04,395.46 1077.5,409.5C 1077.5,410.5 1077.5,411.5 1077.5,412.5C 1076.73,425.126 1071.73,435.793 1062.5,444.5C 1062.5,420.167 1062.5,395.833 1062.5,371.5 Z"/></g>
<g><path style="opacity:0.988" fill="#8828d4" d="M 948.5,378.5 C 948.5,413.833 948.5,449.167 948.5,484.5C 947.167,484.5 945.833,484.5 944.5,484.5C 944.5,451.167 944.5,417.833 944.5,384.5C 945.449,382.223 946.782,380.223 948.5,378.5 Z"/></g>
<g><path style="opacity:0.99" fill="#8829d5" d="M 944.5,384.5 C 944.5,417.833 944.5,451.167 944.5,484.5C 940.215,485.295 935.881,485.628 931.5,485.5C 931.5,455.5 931.5,425.5 931.5,395.5C 936.102,392.238 940.435,388.572 944.5,384.5 Z"/></g>
<g><path style="opacity:0.989" fill="#5c91ef" d="M 170.5,391.5 C 170.5,421.5 170.5,451.5 170.5,481.5C 169.609,480.89 168.609,480.557 167.5,480.5C 167.5,451.167 167.5,421.833 167.5,392.5C 168.391,391.89 169.391,391.557 170.5,391.5 Z"/></g>
<g><path style="opacity:0.984" fill="#5e8cee" d="M 170.5,391.5 C 171.167,391.5 171.833,391.5 172.5,391.5C 172.5,421.5 172.5,451.5 172.5,481.5C 171.833,481.5 171.167,481.5 170.5,481.5C 170.5,451.5 170.5,421.5 170.5,391.5 Z"/></g>
<g><path style="opacity:0.987" fill="#6086ed" d="M 172.5,391.5 C 173.5,391.5 174.5,391.5 175.5,391.5C 175.5,421.5 175.5,451.5 175.5,481.5C 174.5,481.5 173.5,481.5 172.5,481.5C 172.5,451.5 172.5,421.5 172.5,391.5 Z"/></g>
<g><path style="opacity:0.987" fill="#6281eb" d="M 175.5,391.5 C 176.167,391.5 176.833,391.5 177.5,391.5C 177.5,421.5 177.5,451.5 177.5,481.5C 176.833,481.5 176.167,481.5 175.5,481.5C 175.5,451.5 175.5,421.5 175.5,391.5 Z"/></g>
<g><path style="opacity:0.985" fill="#6679e9" d="M 177.5,391.5 C 178.833,391.5 180.167,391.5 181.5,391.5C 181.5,421.5 181.5,451.5 181.5,481.5C 180.167,481.5 178.833,481.5 177.5,481.5C 177.5,451.5 177.5,421.5 177.5,391.5 Z"/></g>
<g><path style="opacity:0.981" fill="#6873e8" d="M 181.5,391.5 C 182.167,391.5 182.833,391.5 183.5,391.5C 183.5,421.167 183.5,450.833 183.5,480.5C 183.158,481.338 182.492,481.672 181.5,481.5C 181.5,451.5 181.5,421.5 181.5,391.5 Z"/></g>
<g><path style="opacity:0.993" fill="#6b6ee6" d="M 183.5,391.5 C 184.167,391.833 184.833,392.167 185.5,392.5C 185.5,421.833 185.5,451.167 185.5,480.5C 184.833,480.5 184.167,480.5 183.5,480.5C 183.5,450.833 183.5,421.167 183.5,391.5 Z"/></g>
<g><path style="opacity:0.988" fill="#5998f1" d="M 167.5,392.5 C 167.5,421.833 167.5,451.167 167.5,480.5C 166.209,480.737 165.209,480.404 164.5,479.5C 164.5,450.833 164.5,422.167 164.5,393.5C 165.209,392.596 166.209,392.263 167.5,392.5 Z"/></g>
<g><path style="opacity:0.986" fill="#6e67e4" d="M 185.5,392.5 C 186.791,392.263 187.791,392.596 188.5,393.5C 188.5,422.167 188.5,450.833 188.5,479.5C 187.791,480.404 186.791,480.737 185.5,480.5C 185.5,451.167 185.5,421.833 185.5,392.5 Z"/></g>
<g><path style="opacity:0.986" fill="#55a0f4" d="M 162.5,393.5 C 162.5,422.167 162.5,450.833 162.5,479.5C 161.833,479.167 161.167,478.833 160.5,478.5C 160.5,450.5 160.5,422.5 160.5,394.5C 160.842,393.662 161.508,393.328 162.5,393.5 Z"/></g>
<g><path style="opacity:0.999" fill="#569cf3" d="M 162.5,393.5 C 163.167,393.5 163.833,393.5 164.5,393.5C 164.5,422.167 164.5,450.833 164.5,479.5C 163.833,479.5 163.167,479.5 162.5,479.5C 162.5,450.833 162.5,422.167 162.5,393.5 Z"/></g>
<g><path style="opacity:0.99" fill="#7061e3" d="M 188.5,393.5 C 189.167,393.5 189.833,393.5 190.5,393.5C 190.5,422.167 190.5,450.833 190.5,479.5C 189.833,479.5 189.167,479.5 188.5,479.5C 188.5,450.833 188.5,422.167 188.5,393.5 Z"/></g>
<g><path style="opacity:0.989" fill="#735ae1" d="M 190.5,393.5 C 191.391,394.11 192.391,394.443 193.5,394.5C 193.5,422.5 193.5,450.5 193.5,478.5C 192.391,478.557 191.391,478.89 190.5,479.5C 190.5,450.833 190.5,422.167 190.5,393.5 Z"/></g>
<g><path style="opacity:0.989" fill="#53a5f5" d="M 160.5,394.5 C 160.5,422.5 160.5,450.5 160.5,478.5C 159.391,478.443 158.391,478.11 157.5,477.5C 157.5,450.167 157.5,422.833 157.5,395.5C 158.391,394.89 159.391,394.557 160.5,394.5 Z"/></g>
<g><path style="opacity:0.985" fill="#7654e0" d="M 193.5,394.5 C 194.167,394.833 194.833,395.167 195.5,395.5C 195.5,422.833 195.5,450.167 195.5,477.5C 194.833,477.833 194.167,478.167 193.5,478.5C 193.5,450.5 193.5,422.5 193.5,394.5 Z"/></g>
<g><path style="opacity:0.987" fill="#50abf6" d="M 157.5,395.5 C 157.5,422.833 157.5,450.167 157.5,477.5C 156.29,477.068 155.29,476.401 154.5,475.5C 154.5,449.5 154.5,423.5 154.5,397.5C 155.29,396.599 156.29,395.932 157.5,395.5 Z"/></g>
<g><path style="opacity:0.983" fill="#794ede" d="M 195.5,395.5 C 196.71,395.932 197.71,396.599 198.5,397.5C 198.5,423.5 198.5,449.5 198.5,475.5C 197.71,476.401 196.71,477.068 195.5,477.5C 195.5,450.167 195.5,422.833 195.5,395.5 Z"/></g>
<g><path style="opacity:0.989" fill="#862ed5" d="M 931.5,395.5 C 931.5,425.5 931.5,455.5 931.5,485.5C 923.195,486.277 914.862,486.943 906.5,487.5C 906.5,460.833 906.5,434.167 906.5,407.5C 915.23,404.302 923.563,400.302 931.5,395.5 Z"/></g>
<g><path style="opacity:0.985" fill="#4db1f8" d="M 154.5,397.5 C 154.5,423.5 154.5,449.5 154.5,475.5C 152.938,475.267 151.605,474.6 150.5,473.5C 150.5,448.833 150.5,424.167 150.5,399.5C 151.514,398.326 152.847,397.66 154.5,397.5 Z"/></g>
<g><path style="opacity:0.985" fill="#7c46dc" d="M 198.5,397.5 C 199.492,397.328 200.158,397.662 200.5,398.5C 200.5,423.833 200.5,449.167 200.5,474.5C 199.833,474.833 199.167,475.167 198.5,475.5C 198.5,449.5 198.5,423.5 198.5,397.5 Z"/></g>
<g><path style="opacity:0.985" fill="#7e41db" d="M 200.5,398.5 C 201.167,398.833 201.833,399.167 202.5,399.5C 202.5,423.833 202.5,448.167 202.5,472.5C 202.167,473.5 201.5,474.167 200.5,474.5C 200.5,449.167 200.5,423.833 200.5,398.5 Z"/></g>
<g><path style="opacity:0.979" fill="#803cd9" d="M 202.5,399.5 C 203.5,399.833 204.167,400.5 204.5,401.5C 204.5,424.833 204.5,448.167 204.5,471.5C 204.158,472.338 203.492,472.672 202.5,472.5C 202.5,448.167 202.5,423.833 202.5,399.5 Z"/></g>
<g><path style="opacity:0.985" fill="#4bb8f9" d="M 150.5,399.5 C 150.5,424.167 150.5,448.833 150.5,473.5C 148.833,472.5 147.5,471.167 146.5,469.5C 146.5,447.167 146.5,424.833 146.5,402.5C 147.833,401.5 149.167,400.5 150.5,399.5 Z"/></g>
<g><path style="opacity:0.972" fill="#48befb" d="M 146.5,402.5 C 146.5,424.833 146.5,447.167 146.5,469.5C 144.29,469.106 142.957,467.773 142.5,465.5C 142.5,446.167 142.5,426.833 142.5,407.5C 143.08,405.251 144.413,403.585 146.5,402.5 Z"/></g>
<g><path style="opacity:0.985" fill="#8334d7" d="M 204.5,401.5 C 205.833,402.167 206.833,403.167 207.5,404.5C 207.5,425.833 207.5,447.167 207.5,468.5C 206.833,469.833 205.833,470.833 204.5,471.5C 204.5,448.167 204.5,424.833 204.5,401.5 Z"/></g>
<g><path style="opacity:0.986" fill="#862dd5" d="M 207.5,404.5 C 208.5,404.833 209.167,405.5 209.5,406.5C 209.5,426.5 209.5,446.5 209.5,466.5C 209.167,467.5 208.5,468.167 207.5,468.5C 207.5,447.167 207.5,425.833 207.5,404.5 Z"/></g>
<g><path style="opacity:0.97" fill="#45c4fd" d="M 142.5,407.5 C 142.5,426.833 142.5,446.167 142.5,465.5C 140.1,463.704 138.433,461.37 137.5,458.5C 137.5,443.833 137.5,429.167 137.5,414.5C 138.01,411.326 139.677,408.992 142.5,407.5 Z"/></g>
<g><path style="opacity:0.974" fill="#8928d4" d="M 209.5,406.5 C 210.5,406.833 211.167,407.5 211.5,408.5C 211.5,427.167 211.5,445.833 211.5,464.5C 211.167,465.5 210.5,466.167 209.5,466.5C 209.5,446.5 209.5,426.5 209.5,406.5 Z"/></g>
<g><path style="opacity:0.988" fill="#8433d7" d="M 906.5,407.5 C 906.5,434.167 906.5,460.833 906.5,487.5C 900.833,487.5 895.167,487.5 889.5,487.5C 889.5,462.5 889.5,437.5 889.5,412.5C 895.105,410.681 900.772,409.015 906.5,407.5 Z"/></g>
<g><path style="opacity:0.964" fill="#8b22d3" d="M 211.5,408.5 C 212.906,408.973 213.573,409.973 213.5,411.5C 213.5,428.167 213.5,444.833 213.5,461.5C 213.068,462.71 212.401,463.71 211.5,464.5C 211.5,445.833 211.5,427.167 211.5,408.5 Z"/></g>
<g><path style="opacity:0.959" fill="#8e1cd1" d="M 213.5,411.5 C 214.906,411.973 215.573,412.973 215.5,414.5C 215.5,429.167 215.5,443.833 215.5,458.5C 215.068,459.71 214.401,460.71 213.5,461.5C 213.5,444.833 213.5,428.167 213.5,411.5 Z"/></g>
<g><path style="opacity:0.991" fill="#8236d8" d="M 889.5,412.5 C 889.5,437.5 889.5,462.5 889.5,487.5C 885.167,487.5 880.833,487.5 876.5,487.5C 876.5,463.5 876.5,439.5 876.5,415.5C 880.772,414.349 885.106,413.349 889.5,412.5 Z"/></g>
<g><path style="opacity:0.886" fill="#43c9fe" d="M 137.5,414.5 C 137.5,429.167 137.5,443.833 137.5,458.5C 133.113,451.935 131.113,444.602 131.5,436.5C 131.113,428.398 133.113,421.065 137.5,414.5 Z"/></g>
<g><path style="opacity:0.933" fill="#9017cf" d="M 215.5,414.5 C 216.674,415.514 217.34,416.847 217.5,418.5C 217.5,430.167 217.5,441.833 217.5,453.5C 217.598,455.553 216.931,457.22 215.5,458.5C 215.5,443.833 215.5,429.167 215.5,414.5 Z"/></g>
<g><path style="opacity:0.989" fill="#813bd9" d="M 876.5,415.5 C 876.5,439.5 876.5,463.5 876.5,487.5C 868.167,487.5 859.833,487.5 851.5,487.5C 851.5,464.833 851.5,442.167 851.5,419.5C 859.767,417.985 868.101,416.652 876.5,415.5 Z"/></g>
<g><path style="opacity:0.987" fill="#7e42db" d="M 847.5,419.5 C 847.5,442.167 847.5,464.833 847.5,487.5C 838.858,486.701 830.191,486.368 821.5,486.5C 821.5,464.833 821.5,443.167 821.5,421.5C 830.205,421.254 838.872,420.587 847.5,419.5 Z"/></g>
<g><path style="opacity:0.987" fill="#7e3fda" d="M 847.5,419.5 C 848.833,419.5 850.167,419.5 851.5,419.5C 851.5,442.167 851.5,464.833 851.5,487.5C 850.167,487.5 848.833,487.5 847.5,487.5C 847.5,464.833 847.5,442.167 847.5,419.5 Z"/></g>
<g><path style="opacity:0.886" fill="#930ecd" d="M 217.5,418.5 C 222.781,430.186 222.781,441.852 217.5,453.5C 217.5,441.833 217.5,430.167 217.5,418.5 Z"/></g>
<g><path style="opacity:0.99" fill="#7b47dc" d="M 817.5,421.5 C 817.5,442.833 817.5,464.167 817.5,485.5C 810.49,485.332 803.49,484.999 796.5,484.5C 796.5,463.833 796.5,443.167 796.5,422.5C 803.588,422.795 810.588,422.462 817.5,421.5 Z"/></g>
<g><path style="opacity:0.985" fill="#7d45dc" d="M 817.5,421.5 C 818.833,421.5 820.167,421.5 821.5,421.5C 821.5,443.167 821.5,464.833 821.5,486.5C 820.292,485.766 818.959,485.433 817.5,485.5C 817.5,464.167 817.5,442.833 817.5,421.5 Z"/></g>
<g><path style="opacity:0.989" fill="#5f89ee" d="M 488.5,434.5 C 491.205,436.512 493.872,438.512 496.5,440.5C 496.5,473.833 496.5,507.167 496.5,540.5C 493.833,539.833 491.167,539.167 488.5,538.5C 488.5,503.833 488.5,469.167 488.5,434.5 Z"/></g>
<g><path style="opacity:0.989" fill="#6085ec" d="M 496.5,440.5 C 504.848,445.675 513.515,450.342 522.5,454.5C 522.5,484.167 522.5,513.833 522.5,543.5C 521.5,543.5 520.5,543.5 519.5,543.5C 512.002,542.27 504.335,541.27 496.5,540.5C 496.5,507.167 496.5,473.833 496.5,440.5 Z"/></g>
<g><path style="opacity:0.991" fill="#6281eb" d="M 522.5,454.5 C 529.418,457.695 536.418,460.695 543.5,463.5C 543.5,490.167 543.5,516.833 543.5,543.5C 536.5,543.5 529.5,543.5 522.5,543.5C 522.5,513.833 522.5,484.167 522.5,454.5 Z"/></g>
<g><path style="opacity:0.972" fill="#5a94f0" d="M 258.5,458.5 C 259.167,458.5 259.833,458.5 260.5,458.5C 260.5,472.167 260.5,485.833 260.5,499.5C 259.833,499.167 259.167,498.833 258.5,498.5C 258.5,485.167 258.5,471.833 258.5,458.5 Z"/></g>
<g><path style="opacity:0.979" fill="#5f8aee" d="M 260.5,458.5 C 261.167,458.5 261.833,458.5 262.5,458.5C 262.5,472.167 262.5,485.833 262.5,499.5C 261.833,499.5 261.167,499.5 260.5,499.5C 260.5,485.833 260.5,472.167 260.5,458.5 Z"/></g>
<g><path style="opacity:0.981" fill="#6380eb" d="M 262.5,458.5 C 263.167,458.5 263.833,458.5 264.5,458.5C 264.5,472.167 264.5,485.833 264.5,499.5C 263.833,499.5 263.167,499.5 262.5,499.5C 262.5,485.833 262.5,472.167 262.5,458.5 Z"/></g>
<g><path style="opacity:0.973" fill="#6775e8" d="M 264.5,458.5 C 265.167,458.5 265.833,458.5 266.5,458.5C 266.5,471.833 266.5,485.167 266.5,498.5C 266.158,499.338 265.492,499.672 264.5,499.5C 264.5,485.833 264.5,472.167 264.5,458.5 Z"/></g>
<g><path style="opacity:0.974" fill="#6d68e5" d="M 266.5,458.5 C 267.791,458.263 268.791,458.596 269.5,459.5C 269.5,472.5 269.5,485.5 269.5,498.5C 268.5,498.5 267.5,498.5 266.5,498.5C 266.5,485.167 266.5,471.833 266.5,458.5 Z"/></g>
<g><path style="opacity:0.984" fill="#559ff3" d="M 258.5,458.5 C 258.5,471.833 258.5,485.167 258.5,498.5C 257.209,498.737 256.209,498.404 255.5,497.5C 255.5,484.833 255.5,472.167 255.5,459.5C 256.609,459.443 257.609,459.11 258.5,458.5 Z"/></g>
<g><path style="opacity:0.978" fill="#735ae1" d="M 269.5,459.5 C 270.492,459.328 271.158,459.662 271.5,460.5C 271.5,472.833 271.5,485.167 271.5,497.5C 270.833,497.833 270.167,498.167 269.5,498.5C 269.5,485.5 269.5,472.5 269.5,459.5 Z"/></g>
<g><path style="opacity:0.966" fill="#4cb4f8" d="M 253.5,460.5 C 253.5,472.5 253.5,484.5 253.5,496.5C 251.973,496.573 250.973,495.906 250.5,494.5C 250.5,483.833 250.5,473.167 250.5,462.5C 251.29,461.599 252.29,460.932 253.5,460.5 Z"/></g>
<g><path style="opacity:0.973" fill="#50abf6" d="M 255.5,459.5 C 255.5,472.167 255.5,484.833 255.5,497.5C 254.508,497.672 253.842,497.338 253.5,496.5C 253.5,484.5 253.5,472.5 253.5,460.5C 254.167,460.167 254.833,459.833 255.5,459.5 Z"/></g>
<g><path style="opacity:0.981" fill="#794ede" d="M 271.5,460.5 C 272.492,460.328 273.158,460.662 273.5,461.5C 273.5,473.167 273.5,484.833 273.5,496.5C 272.833,496.833 272.167,497.167 271.5,497.5C 271.5,485.167 271.5,472.833 271.5,460.5 Z"/></g>
<g><path style="opacity:0.965" fill="#7e42db" d="M 273.5,461.5 C 274.492,461.328 275.158,461.662 275.5,462.5C 275.5,473.5 275.5,484.5 275.5,495.5C 274.833,495.833 274.167,496.167 273.5,496.5C 273.5,484.833 273.5,473.167 273.5,461.5 Z"/></g>
<g><path style="opacity:0.959" fill="#48bdfb" d="M 250.5,462.5 C 250.5,473.167 250.5,483.833 250.5,494.5C 249.5,494.167 248.833,493.5 248.5,492.5C 248.5,483.167 248.5,473.833 248.5,464.5C 248.833,463.5 249.5,462.833 250.5,462.5 Z"/></g>
<g><path style="opacity:0.952" fill="#8336d7" d="M 275.5,462.5 C 276.5,462.833 277.167,463.5 277.5,464.5C 277.5,474.167 277.5,483.833 277.5,493.5C 277.167,494.5 276.5,495.167 275.5,495.5C 275.5,484.5 275.5,473.5 275.5,462.5 Z"/></g>
<g><path style="opacity:0.989" fill="#647dea" d="M 543.5,463.5 C 549.055,465.776 554.722,467.776 560.5,469.5C 560.5,494.167 560.5,518.833 560.5,543.5C 554.833,543.5 549.167,543.5 543.5,543.5C 543.5,516.833 543.5,490.167 543.5,463.5 Z"/></g>
<g><path style="opacity:0.937" fill="#46c4fd" d="M 248.5,464.5 C 248.5,473.833 248.5,483.167 248.5,492.5C 246.738,491.738 245.738,490.404 245.5,488.5C 245.5,481.833 245.5,475.167 245.5,468.5C 246.026,466.77 247.026,465.436 248.5,464.5 Z"/></g>
<g><path style="opacity:0.931" fill="#8927d4" d="M 277.5,464.5 C 279.262,465.262 280.262,466.596 280.5,468.5C 280.5,475.5 280.5,482.5 280.5,489.5C 279.974,491.23 278.974,492.564 277.5,493.5C 277.5,483.833 277.5,474.167 277.5,464.5 Z"/></g>
<g><path style="opacity:0.705" fill="#43cafe" d="M 245.5,468.5 C 245.5,475.167 245.5,481.833 245.5,488.5C 241.571,481.85 241.571,475.183 245.5,468.5 Z"/></g>
<g><path style="opacity:0.987" fill="#6679e9" d="M 560.5,469.5 C 570.028,473.232 579.695,476.565 589.5,479.5C 589.5,499.5 589.5,519.5 589.5,539.5C 580.735,541.009 572.068,542.342 563.5,543.5C 562.5,543.5 561.5,543.5 560.5,543.5C 560.5,518.833 560.5,494.167 560.5,469.5 Z"/></g>
<g><path style="opacity:0.861" fill="#9114cf" d="M 280.5,468.5 C 282.92,471.293 283.92,474.626 283.5,478.5C 283.867,482.653 282.867,486.32 280.5,489.5C 280.5,482.5 280.5,475.5 280.5,468.5 Z"/></g>
<g><path style="opacity:0.982" fill="#6873e8" d="M 589.5,479.5 C 597.789,481.989 606.122,484.322 614.5,486.5C 614.5,502.167 614.5,517.833 614.5,533.5C 606.46,536.259 598.127,538.259 589.5,539.5C 589.5,519.5 589.5,499.5 589.5,479.5 Z"/></g>
<g><path style="opacity:0.981" fill="#6a71e7" d="M 614.5,486.5 C 616.403,486.796 618.07,487.463 619.5,488.5C 619.5,503.167 619.5,517.833 619.5,532.5C 617.883,533.038 616.216,533.371 614.5,533.5C 614.5,517.833 614.5,502.167 614.5,486.5 Z"/></g>
<g><path style="opacity:0.979" fill="#6a70e7" d="M 619.5,488.5 C 621.099,488.232 622.432,488.566 623.5,489.5C 623.5,503.5 623.5,517.5 623.5,531.5C 622.167,531.833 620.833,532.167 619.5,532.5C 619.5,517.833 619.5,503.167 619.5,488.5 Z"/></g>
<g><path style="opacity:0.972" fill="#6b6de6" d="M 623.5,489.5 C 631.967,491.034 640.3,493.034 648.5,495.5C 648.5,504.167 648.5,512.833 648.5,521.5C 640.556,525.597 632.223,528.93 623.5,531.5C 623.5,517.5 623.5,503.5 623.5,489.5 Z"/></g>
<g><path style="opacity:0.933" fill="#6d67e5" d="M 648.5,495.5 C 660.039,497.718 671.373,500.552 682.5,504C 671.865,511.151 660.532,516.984 648.5,521.5C 648.5,512.833 648.5,504.167 648.5,495.5 Z"/></g>
</svg>
